# xmcd
#
# Track frame offsets:
# 150
# 6021
# 10788
# 15314
# 21478
# 31427
# 40725
# 46179
# 52964
# 59660
# 66186
# 72249
# 79130
# 93735
# 105647
# 117889
# 126163
# 134917
# 141903
# 148644
# 155423
# 165075
# 173680
# 183452
# 192104
#
# Disc length: 2636 seconds
#
#
# Revision: 0
# Processed by: cddbd v1.5.1PL2 Copyright (c) Steve Scherf et al.
# Submitted via: FreeRIP 2.945 
#
DISCID=550a4a19
DTITLE=Dick Weissman - MIke Connolly - Easy Mandolin Solos
DYEAR=1985
DGENRE=Bluegrass
TTITLE0=Where the Rivers Change Direction
TTITLE1=Minor Waltz
TTITLE2=Tie One On
TTITLE3=Rest for the Wary
TTITLE4=October Breeze
TTITLE5=Suspension
TTITLE6=Hammers #2
TTITLE7=Can you Pull It Off?
TTITLE8=Minor Blues
TTITLE9=Motorcycle #2
TTITLE10=Cross Country
TTITLE11=The Phrygian Phantom
TTITLE12=Toss the Accordion
TTITLE13=The Goose is Gone
TTITLE14=Sally Geht Your Shoes On
TTITLE15=Rocky Mountain Waltz - Basic
TTITLE16=Rocky Mountain Waltz - Ornaments
TTITLE17=Arpeggios in Wonderland
TTITLE18=Rolling Scales
TTITLE19=Steffi's Polka
TTITLE20=Greek to Me
TTITLE21=Three Plus Two
TTITLE22=Four O'Clock Boogie
TTITLE23=Some Clues on the Blues
TTITLE24=Greensleeves
EXTD=Mel Bay's Book
EXTT0=
EXTT1=
EXTT2=
EXTT3=
EXTT4=
EXTT5=
EXTT6=
EXTT7=
EXTT8=
EXTT9=
EXTT10=
EXTT11=
EXTT12=
EXTT13=
EXTT14=
EXTT15=
EXTT16=
EXTT17=
EXTT18=
EXTT19=
EXTT20=
EXTT21=
EXTT22=
EXTT23=
EXTT24=
PLAYORDER=
